<svg xmlns="http://www.w3.org/2000/svg" width="60px" xmlns:xlink="http://www.w3.org/1999/xlink" viewBox="0 0 59.98 49.6"><defs><style>.cls-1{fill:url(#Blue);}.cls-2{fill:#00aeef;}.cls-3{fill:url(#Blue-2);}.cls-4{fill:none;}</style><linearGradient id="Blue" x1="96.01" y1="85.92" x2="121.18" y2="85.92" gradientUnits="userSpaceOnUse"><stop offset="0" stop-color="#2bc4f3"/><stop offset="0.5" stop-color="#00aeee"/><stop offset="1" stop-color="#0095da"/></linearGradient><linearGradient id="Blue-2" x1="127.01" y1="60.51" x2="155.99" y2="60.51" xlink:href="#Blue"/></defs><title>LOGOFINAL</title><g id="Layer_1" data-name="Layer 1"><path class="cls-1" d="M116.44,96.8H96L107.7,76.55a3,3,0,0,1,5.25,0l7.59,13.14A4.74,4.74,0,0,1,116.44,96.8Z" transform="translate(-96.01 -47.2)"/><path class="cls-2" d="M144.88,96.8h-6.94a8.88,8.88,0,0,1-7.68-4.43L108.44,54.71a5,5,0,0,1,4.33-7.51h.47a9.84,9.84,0,0,1,8.5,4.9l24.52,42.32h0A1.59,1.59,0,0,1,144.88,96.8Z" transform="translate(-96.01 -47.2)"/><path class="cls-3" d="M156,62.11a15.21,15.21,0,0,1-.18,2.35,14.86,14.86,0,0,1-2.27,5.84,8.06,8.06,0,0,1-13.67-.57l-2.08-3.64H141a4.07,4.07,0,0,0,4.09-3.79,4,4,0,0,0-4-4.17h-7.83L127,47.2h14.07c.53,0,1,0,1.55.08A14.92,14.92,0,0,1,156,62.11Z" transform="translate(-96.01 -47.2)"/><path class="cls-4" d="M130.27,92.38" transform="translate(-96.01 -47.2)"/><path class="cls-4" d="M147.63,96.8" transform="translate(-96.01 -47.2)"/><path class="cls-4" d="M133.25,58.13S128.07,47.63,145.92,48" transform="translate(-96.01 -47.2)"/></g></svg>